<?xml version="1.0" encoding="utf-8"?>
<!-- Generator: Adobe Illustrator 21.0.0, SVG Export Plug-In . SVG Version: 6.00 Build 0)  -->
<svg version="1.1" xmlns="http://www.w3.org/2000/svg" xmlns:xlink="http://www.w3.org/1999/xlink" x="0px" y="0px"
	 viewBox="0 0 50 50" style="enable-background:new 0 0 50 50;" xml:space="preserve">
<style type="text/css">
	.st0{fill:#FF0000;}
</style>
<g id="Layer_1">
	<path d="M25,39.7l-0.6-0.5C11.5,28.7,8,25,8,19c0-5,4-9,9-9c4.1,0,6.4,2.3,8,4.1c1.6-1.8,3.9-4.1,8-4.1c5,0,9,4,9,9
		c0,6-3.5,9.7-16.4,20.2L25,39.7z M17,12c-3.9,0-7,3.1-7,7c0,5.1,3.2,8.5,15,18.1c11.8-9.6,15-13,15-18.1c0-3.9-3.1-7-7-7
		c-3.5,0-5.4,2.1-6.9,3.8L25,17.1l-1.1-1.3C22.4,14.1,20.5,12,17,12z"/>
	<path d="M25,39.7l-0.6-0.5C11.5,28.7,8,25,8,19c0-5,4-9,9-9c4.1,0,6.4,2.3,8,4.1c1.6-1.8,3.9-4.1,8-4.1c5,0,9,4,9,9
		c0,6-3.5,9.7-16.4,20.2L25,39.7z M17,12c-3.9,0-7,3.1-7,7c0,5.1,3.2,8.5,15,18.1c11.8-9.6,15-13,15-18.1c0-3.9-3.1-7-7-7
		c-3.5,0-5.4,2.1-6.9,3.8L25,17.1l-1.1-1.3C22.4,14.1,20.5,12,17,12z"/>
</g>
<g id="Layer_2">
	<g>
		<path class="st0" d="M33,12c-3.5,0-5.4,2.1-6.9,3.8L25,17.1l-1.1-1.3C22.4,14.1,20.5,12,17,12c-3.9,0-7,3.1-7,7
			c0,5.1,3.2,8.5,15,18.1c11.8-9.6,15-13,15-18.1C40,15.1,36.9,12,33,12z"/>
	</g>
</g>
</svg>
